<svg width="65" height="65" viewBox="0 0 65 65" fill="none" xmlns="http://www.w3.org/2000/svg">
<rect width="65" height="65" rx="29" fill="#CCCADE"/>
<path d="M30.5968 28.38H24.3568V31.14C24.6235 30.8467 24.9968 30.6067 25.4768 30.42C25.9568 30.2333 26.4768 30.14 27.0368 30.14C28.0368 30.14 28.8635 30.3667 29.5168 30.82C30.1835 31.2733 30.6701 31.86 30.9768 32.58C31.2835 33.3 31.4368 34.08 31.4368 34.92C31.4368 36.48 30.9968 37.72 30.1168 38.64C29.2368 39.5467 27.9968 40 26.3968 40C25.3301 40 24.4035 39.82 23.6168 39.46C22.8301 39.0867 22.2235 38.5733 21.7968 37.92C21.3701 37.2667 21.1368 36.5133 21.0968 35.66H24.4368C24.5168 36.0733 24.7101 36.42 25.0168 36.7C25.3235 36.9667 25.7435 37.1 26.2768 37.1C26.9035 37.1 27.3701 36.9 27.6768 36.5C27.9835 36.1 28.1368 35.5667 28.1368 34.9C28.1368 34.2467 27.9768 33.7467 27.6568 33.4C27.3368 33.0533 26.8701 32.88 26.2568 32.88C25.8035 32.88 25.4301 32.9933 25.1368 33.22C24.8435 33.4333 24.6501 33.72 24.5568 34.08H21.2568V25.38H30.5968V28.38ZM44.4046 34.54H40.9246V38.1H37.6846V34.54H34.2046V31.48H37.6846V27.9H40.9246V31.48H44.4046V34.54Z" fill="#181341"/>
</svg>
