<svg width="65" height="65" viewBox="0 0 65 65" fill="none" xmlns="http://www.w3.org/2000/svg">
<rect width="65" height="65" rx="29" fill="#CCCADE"/>
<path d="M9.78 37.26C10.2333 36.9 10.44 36.7333 10.4 36.76C11.7067 35.68 12.7333 34.7933 13.48 34.1C14.24 33.4067 14.88 32.68 15.4 31.92C15.92 31.16 16.18 30.42 16.18 29.7C16.18 29.1533 16.0533 28.7267 15.8 28.42C15.5467 28.1133 15.1667 27.96 14.66 27.96C14.1533 27.96 13.7533 28.1533 13.46 28.54C13.18 28.9133 13.04 29.4467 13.04 30.14H9.74C9.76667 29.0067 10.0067 28.06 10.46 27.3C10.9267 26.54 11.5333 25.98 12.28 25.62C13.04 25.26 13.88 25.08 14.8 25.08C16.3867 25.08 17.58 25.4867 18.38 26.3C19.1933 27.1133 19.6 28.1733 19.6 29.48C19.6 30.9067 19.1133 32.2333 18.14 33.46C17.1667 34.6733 15.9267 35.86 14.42 37.02H19.82V39.8H9.78V37.26ZM22.0058 37.4V34.64L28.3258 25.6H32.1458V34.44H33.7858V37.4H32.1458V40H28.7258V37.4H22.0058ZM28.9658 29.36L25.6058 34.44H28.9658V29.36ZM44.0209 21L38.6609 43.74H35.3609L40.7209 21H44.0209ZM55.0434 27.96L50.0234 40H46.5234L51.6034 28.34H45.3834V25.42H55.0434V27.96Z" fill="#181341"/>
</svg>
