<svg width="65" height="65" viewBox="0 0 65 65" fill="none" xmlns="http://www.w3.org/2000/svg">
<rect width="65" height="65" rx="29" fill="#CCCADE"/>
<path d="M15.58 35.72C15.78 36.7733 16.3933 37.3 17.42 37.3C18.1267 37.3 18.6267 36.9867 18.92 36.36C19.2133 35.7333 19.36 34.7133 19.36 33.3C19.0667 33.7133 18.6667 34.0333 18.16 34.26C17.6533 34.4867 17.0867 34.6 16.46 34.6C15.6067 34.6 14.8467 34.4267 14.18 34.08C13.5133 33.72 12.9867 33.1933 12.6 32.5C12.2267 31.7933 12.04 30.94 12.04 29.94C12.04 28.9533 12.24 28.0933 12.64 27.36C13.0533 26.6267 13.6333 26.06 14.38 25.66C15.14 25.26 16.0333 25.06 17.06 25.06C19.0333 25.06 20.4133 25.6733 21.2 26.9C21.9867 28.1267 22.38 29.9333 22.38 32.32C22.38 34.0533 22.22 35.4867 21.9 36.62C21.5933 37.74 21.0667 38.5933 20.32 39.18C19.5867 39.7667 18.58 40.06 17.3 40.06C16.2867 40.06 15.42 39.86 14.7 39.46C13.9933 39.06 13.4467 38.5333 13.06 37.88C12.6867 37.2267 12.4733 36.5067 12.42 35.72H15.58ZM17.24 31.9C17.8 31.9 18.2467 31.7333 18.58 31.4C18.9133 31.0533 19.08 30.5867 19.08 30C19.08 29.36 18.9067 28.8667 18.56 28.52C18.2133 28.1733 17.7467 28 17.16 28C16.5733 28 16.1067 28.18 15.76 28.54C15.4267 28.8867 15.26 29.3667 15.26 29.98C15.26 30.5533 15.4267 31.02 15.76 31.38C16.1067 31.7267 16.6 31.9 17.24 31.9ZM35.0847 28.38H28.8447V31.14C29.1114 30.8467 29.4847 30.6067 29.9647 30.42C30.4447 30.2333 30.9647 30.14 31.5247 30.14C32.5247 30.14 33.3514 30.3667 34.0047 30.82C34.6714 31.2733 35.158 31.86 35.4647 32.58C35.7714 33.3 35.9247 34.08 35.9247 34.92C35.9247 36.48 35.4847 37.72 34.6047 38.64C33.7247 39.5467 32.4847 40 30.8847 40C29.818 40 28.8914 39.82 28.1047 39.46C27.318 39.0867 26.7114 38.5733 26.2847 37.92C25.858 37.2667 25.6247 36.5133 25.5847 35.66H28.9247C29.0047 36.0733 29.198 36.42 29.5047 36.7C29.8114 36.9667 30.2314 37.1 30.7647 37.1C31.3914 37.1 31.858 36.9 32.1647 36.5C32.4714 36.1 32.6247 35.5667 32.6247 34.9C32.6247 34.2467 32.4647 33.7467 32.1447 33.4C31.8247 33.0533 31.358 32.88 30.7447 32.88C30.2914 32.88 29.918 32.9933 29.6247 33.22C29.3314 33.4333 29.138 33.72 29.0447 34.08H25.7447V25.38H35.0847V28.38ZM38.1325 29.08C38.1325 28 38.4392 27.1667 39.0525 26.58C39.6792 25.9933 40.4858 25.7 41.4725 25.7C42.4592 25.7 43.2592 25.9933 43.8725 26.58C44.4858 27.1667 44.7925 28 44.7925 29.08C44.7925 30.16 44.4858 30.9933 43.8725 31.58C43.2592 32.1667 42.4592 32.46 41.4725 32.46C40.4858 32.46 39.6792 32.1667 39.0525 31.58C38.4392 30.9933 38.1325 30.16 38.1325 29.08ZM51.7125 25.92L44.0125 40H40.7125L48.4125 25.92H51.7125ZM41.4525 27.7C40.8125 27.7 40.4925 28.16 40.4925 29.08C40.4925 29.9867 40.8125 30.44 41.4525 30.44C41.7592 30.44 41.9992 30.3267 42.1725 30.1C42.3458 29.8733 42.4325 29.5333 42.4325 29.08C42.4325 28.16 42.1058 27.7 41.4525 27.7ZM47.6525 36.84C47.6525 35.76 47.9592 34.9267 48.5725 34.34C49.1858 33.7533 49.9858 33.46 50.9725 33.46C51.9592 33.46 52.7592 33.7533 53.3725 34.34C53.9858 34.9267 54.2925 35.76 54.2925 36.84C54.2925 37.92 53.9858 38.7533 53.3725 39.34C52.7592 39.9267 51.9592 40.22 50.9725 40.22C49.9858 40.22 49.1858 39.9267 48.5725 39.34C47.9592 38.7533 47.6525 37.92 47.6525 36.84ZM50.9525 35.46C50.6458 35.46 50.4058 35.5733 50.2325 35.8C50.0725 36.0267 49.9925 36.3733 49.9925 36.84C49.9925 37.7467 50.3125 38.2 50.9525 38.2C51.2592 38.2 51.4992 38.0867 51.6725 37.86C51.8458 37.6333 51.9325 37.2933 51.9325 36.84C51.9325 36.3867 51.8458 36.0467 51.6725 35.82C51.4992 35.58 51.2592 35.46 50.9525 35.46Z" fill="#181341"/>
</svg>
